# xmcd
#
# Track frame offsets: 
#        182
#        28502
#        45515
#        59935
#        88370
#        106587
#        127215
#        163497
#        178950
#        192190
#        219220
#        241815
#        270287
#        283327
#        295192
#        319617
#
# Disc length: 4556 seconds
#
# Revision: 8
# Processed by: cddbd v1.5.2PL0 Copyright (c) Steve Scherf et al.
# Submitted via: ExactAudioCopyFreeDBPlugin 1.0
#
DISCID=f511ca10
DTITLE=Various Artist - Comin' Home To The Blues [CD 3)
DYEAR=1991
DGENRE=Blues
TTITLE0=Buddy Guy - When You See The Tears from My Eyes
TTITLE1=John Lee Hooker - Goin' Mad Blues
TTITLE2=Sonny Boy Williamson - All My Love In Vain (Live)
TTITLE3=Mississippi Fred McDowell - Standing At The Burial Ground
TTITLE4=Tommy Tucker - Hi Heel Sneakers
TTITLE5=Muddy Waters - She's 19 Years Old (Live)
TTITLE6=Albert Collins - How Blue Can You Get (Live)
TTITLE7=Junior Wells - Hoodoo Man
TTITLE8=John Lee Hooker - No Friend Around
TTITLE9=Bo Diddley - Don't Know Where I've Been
TTITLE10=Charlie Musselwhite - Christo Redemptor (Live)
TTITLE11=Tony McPhee and Billy Boy Arnold - Blue And Lonesome
TTITLE12=Muddy Waters - Hoochie Coochie Man (Live)
TTITLE13=Screamin' Jay Hawkins - Baptize Me In Wine
TTITLE14=Little Walter - Sad Hours
TTITLE15=Paul Butterfield - One Room Country Shack
EXTD=
EXTT0=
EXTT1=
EXTT2=
EXTT3=
EXTT4=
EXTT5=
EXTT6=
EXTT7=
EXTT8=
EXTT9=
EXTT10=
EXTT11=
EXTT12=
EXTT13=
EXTT14=
EXTT15=
PLAYORDER=
